<svg width="13" height="12" viewBox="0 0 13 12" fill="none" xmlns="http://www.w3.org/2000/svg">
<path d="M5.63332 1.19995C3.24522 1.19995 1.29999 2.99555 1.29999 5.19995C1.29999 7.40435 3.24522 9.19995 5.63332 9.19995C6.67181 9.19995 7.62552 8.85955 8.37297 8.29448L10.9603 10.6828C11.0002 10.7212 11.048 10.7518 11.101 10.7729C11.1539 10.794 11.2108 10.8052 11.2685 10.8057C11.3261 10.8063 11.3833 10.7962 11.4367 10.7761C11.4901 10.756 11.5386 10.7262 11.5793 10.6886C11.6201 10.6509 11.6523 10.6062 11.6741 10.5569C11.6959 10.5076 11.7068 10.4549 11.7062 10.4016C11.7057 10.3484 11.6936 10.2958 11.6707 10.247C11.6478 10.1981 11.6146 10.154 11.573 10.1171L8.98573 7.72886C9.59788 7.03891 9.96665 6.15855 9.96665 5.19995C9.96665 2.99555 8.02142 1.19995 5.63332 1.19995ZM5.63332 1.99995C7.55304 1.99995 9.09999 3.4279 9.09999 5.19995C9.09999 6.972 7.55304 8.39995 5.63332 8.39995C3.7136 8.39995 2.16665 6.972 2.16665 5.19995C2.16665 3.4279 3.7136 1.99995 5.63332 1.99995Z" fill="#DCDEE4"/>
</svg>
